<?xml version="1.0" encoding="UTF-8"?>
<svg xmlns="http://www.w3.org/2000/svg" xmlns:xlink="http://www.w3.org/1999/xlink" width="298pt" height="163pt" viewBox="0 0 298 163" version="1.1">
<defs>
<g>
<symbol overflow="visible" id="glyph0-0">
<path style="stroke:none;" d="M 0.640625 2.265625 L 0.640625 -9.015625 L 7.03125 -9.015625 L 7.03125 2.265625 Z M 1.359375 1.546875 L 6.328125 1.546875 L 6.328125 -8.296875 L 1.359375 -8.296875 Z M 1.359375 1.546875 "/>
</symbol>
<symbol overflow="visible" id="glyph0-1">
<path style="stroke:none;" d="M 6.25 -6.734375 L 6.25 -5.65625 C 5.914062 -5.832031 5.585938 -5.960938 5.265625 -6.046875 C 4.941406 -6.140625 4.613281 -6.1875 4.28125 -6.1875 C 3.53125 -6.1875 2.945312 -5.953125 2.53125 -5.484375 C 2.125 -5.015625 1.921875 -4.351562 1.921875 -3.5 C 1.921875 -2.644531 2.125 -1.976562 2.53125 -1.5 C 2.945312 -1.03125 3.53125 -0.796875 4.28125 -0.796875 C 4.613281 -0.796875 4.941406 -0.835938 5.265625 -0.921875 C 5.585938 -1.015625 5.914062 -1.148438 6.25 -1.328125 L 6.25 -0.265625 C 5.925781 -0.117188 5.59375 -0.0078125 5.25 0.0625 C 4.90625 0.144531 4.539062 0.1875 4.15625 0.1875 C 3.09375 0.1875 2.25 -0.144531 1.625 -0.8125 C 1.007812 -1.476562 0.703125 -2.375 0.703125 -3.5 C 0.703125 -4.632812 1.015625 -5.53125 1.640625 -6.1875 C 2.273438 -6.84375 3.132812 -7.171875 4.21875 -7.171875 C 4.570312 -7.171875 4.914062 -7.132812 5.25 -7.0625 C 5.59375 -6.988281 5.925781 -6.878906 6.25 -6.734375 Z M 6.25 -6.734375 "/>
</symbol>
<symbol overflow="visible" id="glyph0-2">
<path style="stroke:none;" d="M 6.234375 -3.5 C 6.234375 -4.34375 6.054688 -5.003906 5.703125 -5.484375 C 5.359375 -5.960938 4.882812 -6.203125 4.28125 -6.203125 C 3.664062 -6.203125 3.179688 -5.960938 2.828125 -5.484375 C 2.484375 -5.003906 2.3125 -4.34375 2.3125 -3.5 C 2.3125 -2.644531 2.484375 -1.976562 2.828125 -1.5 C 3.179688 -1.019531 3.664062 -0.78125 4.28125 -0.78125 C 4.882812 -0.78125 5.359375 -1.019531 5.703125 -1.5 C 6.054688 -1.976562 6.234375 -2.644531 6.234375 -3.5 Z M 2.3125 -5.9375 C 2.5625 -6.351562 2.867188 -6.660156 3.234375 -6.859375 C 3.597656 -7.066406 4.039062 -7.171875 4.5625 -7.171875 C 5.40625 -7.171875 6.09375 -6.832031 6.625 -6.15625 C 7.15625 -5.476562 7.421875 -4.59375 7.421875 -3.5 C 7.421875 -2.394531 7.15625 -1.503906 6.625 -0.828125 C 6.09375 -0.148438 5.40625 0.1875 4.5625 0.1875 C 4.039062 0.1875 3.597656 0.0859375 3.234375 -0.109375 C 2.867188 -0.316406 2.5625 -0.628906 2.3125 -1.046875 L 2.3125 0 L 1.15625 0 L 1.15625 -9.71875 L 2.3125 -9.71875 Z M 2.3125 -5.9375 "/>
</symbol>
<symbol overflow="visible" id="glyph0-3">
<path style="stroke:none;" d="M 4.390625 -3.515625 C 3.460938 -3.515625 2.816406 -3.40625 2.453125 -3.1875 C 2.097656 -2.976562 1.921875 -2.617188 1.921875 -2.109375 C 1.921875 -1.703125 2.050781 -1.378906 2.3125 -1.140625 C 2.582031 -0.898438 2.953125 -0.78125 3.421875 -0.78125 C 4.054688 -0.78125 4.566406 -1.003906 4.953125 -1.453125 C 5.335938 -1.910156 5.53125 -2.515625 5.53125 -3.265625 L 5.53125 -3.515625 Z M 6.671875 -4 L 6.671875 0 L 5.53125 0 L 5.53125 -1.0625 C 5.269531 -0.632812 4.941406 -0.316406 4.546875 -0.109375 C 4.160156 0.0859375 3.679688 0.1875 3.109375 0.1875 C 2.390625 0.1875 1.816406 -0.015625 1.390625 -0.421875 C 0.972656 -0.828125 0.765625 -1.363281 0.765625 -2.03125 C 0.765625 -2.820312 1.023438 -3.414062 1.546875 -3.8125 C 2.078125 -4.21875 2.867188 -4.421875 3.921875 -4.421875 L 5.53125 -4.421875 L 5.53125 -4.53125 C 5.53125 -5.0625 5.351562 -5.46875 5 -5.75 C 4.65625 -6.039062 4.171875 -6.1875 3.546875 -6.1875 C 3.140625 -6.1875 2.75 -6.140625 2.375 -6.046875 C 2 -5.953125 1.632812 -5.8125 1.28125 -5.625 L 1.28125 -6.671875 C 1.695312 -6.835938 2.101562 -6.960938 2.5 -7.046875 C 2.894531 -7.128906 3.28125 -7.171875 3.65625 -7.171875 C 4.675781 -7.171875 5.429688 -6.90625 5.921875 -6.375 C 6.421875 -5.851562 6.671875 -5.0625 6.671875 -4 Z M 6.671875 -4 "/>
</symbol>
<symbol overflow="visible" id="glyph0-4">
<path style="stroke:none;" d="M 5.8125 -5.9375 L 5.8125 -9.71875 L 6.953125 -9.71875 L 6.953125 0 L 5.8125 0 L 5.8125 -1.046875 C 5.570312 -0.628906 5.265625 -0.316406 4.890625 -0.109375 C 4.523438 0.0859375 4.082031 0.1875 3.5625 0.1875 C 2.71875 0.1875 2.03125 -0.148438 1.5 -0.828125 C 0.96875 -1.503906 0.703125 -2.394531 0.703125 -3.5 C 0.703125 -4.59375 0.96875 -5.476562 1.5 -6.15625 C 2.03125 -6.832031 2.71875 -7.171875 3.5625 -7.171875 C 4.082031 -7.171875 4.523438 -7.066406 4.890625 -6.859375 C 5.265625 -6.660156 5.570312 -6.351562 5.8125 -5.9375 Z M 1.890625 -3.5 C 1.890625 -2.644531 2.0625 -1.976562 2.40625 -1.5 C 2.757812 -1.019531 3.238281 -0.78125 3.84375 -0.78125 C 4.457031 -0.78125 4.9375 -1.019531 5.28125 -1.5 C 5.632812 -1.976562 5.8125 -2.644531 5.8125 -3.5 C 5.8125 -4.34375 5.632812 -5.003906 5.28125 -5.484375 C 4.9375 -5.960938 4.457031 -6.203125 3.84375 -6.203125 C 3.238281 -6.203125 2.757812 -5.960938 2.40625 -5.484375 C 2.0625 -5.003906 1.890625 -4.34375 1.890625 -3.5 Z M 1.890625 -3.5 "/>
</symbol>
</g>
</defs>
<g id="surface18267">
<rect x="0" y="0" width="298" height="163" style="fill:rgb(100%,100%,100%);fill-opacity:1;stroke:none;"/>
<path style="fill-rule:evenodd;fill:rgb(100%,100%,100%);fill-opacity:1;stroke-width:0.1;stroke-linecap:butt;stroke-linejoin:miter;stroke:rgb(0%,0%,0%);stroke-opacity:1;stroke-miterlimit:10;" d="M 11.200039 7.65 L 16.400039 7.65 L 16.400039 9.45 L 11.200039 9.45 Z M 11.200039 7.65 " transform="matrix(20,0,0,20,-199.2,-129)"/>
<g style="fill:rgb(0%,0%,0%);fill-opacity:1;">
  <use xlink:href="#glyph0-1" x="34.800781" y="45.88878"/>
</g>
<path style="fill-rule:evenodd;fill:rgb(100%,100%,100%);fill-opacity:1;stroke-width:0.1;stroke-linecap:butt;stroke-linejoin:miter;stroke:rgb(0%,0%,0%);stroke-opacity:1;stroke-miterlimit:10;" d="M 11.204922 9.609961 L 16.404922 9.609961 L 16.404922 11.409961 L 11.204922 11.409961 Z M 11.204922 9.609961 " transform="matrix(20,0,0,20,-199.2,-129)"/>
<g style="fill:rgb(0%,0%,0%);fill-opacity:1;">
  <use xlink:href="#glyph0-2" x="34.898437" y="85.087999"/>
</g>
<path style="fill-rule:evenodd;fill:rgb(100%,100%,100%);fill-opacity:1;stroke-width:0.1;stroke-linecap:butt;stroke-linejoin:miter;stroke:rgb(0%,0%,0%);stroke-opacity:1;stroke-miterlimit:10;" d="M 11.16 11.569922 L 16.36 11.569922 L 16.36 13.369922 L 11.16 13.369922 Z M 11.16 11.569922 " transform="matrix(20,0,0,20,-199.2,-129)"/>
<g style="fill:rgb(0%,0%,0%);fill-opacity:1;">
  <use xlink:href="#glyph0-3" x="34" y="124.287218"/>
</g>
<path style="fill-rule:evenodd;fill:rgb(100%,100%,100%);fill-opacity:1;stroke-width:0.1;stroke-linecap:butt;stroke-linejoin:miter;stroke:rgb(0%,0%,0%);stroke-opacity:1;stroke-miterlimit:10;" d="M 18.465078 11.630078 L 23.665078 11.630078 L 23.665078 13.430078 L 18.465078 13.430078 Z M 18.465078 11.630078 " transform="matrix(20,0,0,20,-199.2,-129)"/>
<g style="fill:rgb(0%,0%,0%);fill-opacity:1;">
  <use xlink:href="#glyph0-4" x="180.101562" y="125.486437"/>
</g>
</g>
</svg>
